# xmcd
#
# Track frame offsets: 
#        150
#        15920
#        28727
#        41022
#        52855
#        65677
#        81140
#        92997
#        112915
#        127377
#        145372
#        158570
#        171840
#        186747
#        201602
#        211802
#
# Disc length: 2997 seconds
#
# Revision: 2
# Processed by: cddbd v1.5.2PL0 Copyright (c) Steve Scherf et al.
# Submitted via: ExactAudioCopyFreeDBPlugin 1.0
#
DISCID=e90bb310
DTITLE=Various Artist - Trucker Hit Convoy [CD 2)
DYEAR=1900
DGENRE=Country
TTITLE0=Jonny Hill - Westwärts
TTITLE1=Tom Astor - Kleiner Streuner
TTITLE2=Rio Carter - Nie mehr Alkohol beim Fahren
TTITLE3=Dirk Maverick - Trucker sind nie namenlos
TTITLE4=Nashville Music Company - Wir stehen im Stau
TTITLE5=Rugy and Howard - Das ist mein Truck
TTITLE6=Tom Astor - Mein kleines Stückchen Freiheit
TTITLE7=Andy Glandt and Greenhorn - Wenn du fährst
TTITLE8=Gunter Gabriel - Den Rocker kriegst du nicht mehr aus mir raus
TTITLE9=Gudrun Lange and Kactus - Ich bin wieder frei
TTITLE10=Tom Astor - Morgen fahr´ ich nach Louisiana
TTITLE11=Dirk Maverick - Freunde Europaweit
TTITLE12=Ralf Paulsen - Ich möcht´ so gern nach Nashville, Tennessee
TTITLE13=Tom Astor - Geh´ mal richtig aus dir raus
TTITLE14=D´r drüjje Pitter - Truckerfest in Budapest
TTITLE15=Tom Astor - Alle Straßen dieser Welt
EXTD=
EXTT0=
EXTT1=
EXTT2=
EXTT3=
EXTT4=
EXTT5=
EXTT6=
EXTT7=
EXTT8=
EXTT9=
EXTT10=
EXTT11=
EXTT12=
EXTT13=
EXTT14=
EXTT15=
PLAYORDER=
